{
	"asset":{
		"generator":"Khronos glTF Blender I/O v3.6.27",
		"version":"2.0"
	},
	"scene":0,
	"scenes":[
		{
			"name":"Scene",
			"nodes":[
				0
			]
		}
	],
	"nodes":[
		{
			"mesh":0,
			"name":"\u041f\u043b\u043e\u0441\u043a\u043e\u0441\u0442\u044c.018",
			"rotation":[
				0.5,
				0.5,
				-0.5,
				0.5
			],
			"scale":[
				0.7900000214576721,
				1,
				0.27000001072883606
			],
			"translation":[
				4.770132064819336,
				0.630000114440918,
				-0.39000001549720764
			]
		}
	],
	"materials":[
		{
			"doubleSided":true,
			"name":"\u041c\u0430\u0442\u0435\u0440\u0438\u0430\u043b",
			"pbrMetallicRoughness":{
				"baseColorFactor":[
					0.03106442652642727,
					0.03106442652642727,
					0.03106442652642727,
					1
				],
				"metallicFactor":0,
				"roughnessFactor":0.5
			}
		}
	],
	"meshes":[
		{
			"name":"\u041f\u043b\u043e\u0441\u043a\u043e\u0441\u0442\u044c.025",
			"primitives":[
				{
					"attributes":{
						"POSITION":0,
						"NORMAL":1,
						"TEXCOORD_0":2,
						"TEXCOORD_1":3
					},
					"indices":4,
					"material":0
				}
			]
		}
	],
	"accessors":[
		{
			"bufferView":0,
			"componentType":5126,
			"count":12740,
			"max":[
				0.2685313820838928,
				0.4000002145767212,
				2.3370375633239746
			],
			"min":[
				-1.2558733224868774,
				-1.6812502145767212,
				-6.038104057312012
			],
			"type":"VEC3"
		},
		{
			"bufferView":1,
			"componentType":5126,
			"count":12740,
			"type":"VEC3"
		},
		{
			"bufferView":2,
			"componentType":5126,
			"count":12740,
			"type":"VEC2"
		},
		{
			"bufferView":3,
			"componentType":5126,
			"count":12740,
			"type":"VEC2"
		},
		{
			"bufferView":4,
			"componentType":5123,
			"count":25176,
			"type":"SCALAR"
		}
	],
	"bufferViews":[
		{
			"buffer":0,
			"byteLength":152880,
			"byteOffset":0,
			"target":34962
		},
		{
			"buffer":0,
			"byteLength":152880,
			"byteOffset":152880,
			"target":34962
		},
		{
			"buffer":0,
			"byteLength":101920,
			"byteOffset":305760,
			"target":34962
		},
		{
			"buffer":0,
			"byteLength":101920,
			"byteOffset":407680,
			"target":34962
		},
		{
			"buffer":0,
			"byteLength":50352,
			"byteOffset":509600,
			"target":34963
		}
	],
	"buffers":[
		{
			"byteLength":559952,
			"uri":"untitled.bin"
		}
	]
}
